<svg width="20" height="12" viewBox="0 0 20 12" fill="none" xmlns="http://www.w3.org/2000/svg">
<path fill-rule="evenodd" clip-rule="evenodd" d="M18.5808 0.531738H17.4769C16.8673 0.531738 16.3731 0.979453 16.3731 1.53174V10.1984C16.3731 10.7507 16.8673 11.1984 17.4769 11.1984H18.5808C19.1904 11.1984 19.6846 10.7507 19.6846 10.1984V1.53174C19.6846 0.979453 19.1904 0.531738 18.5808 0.531738ZM12.3249 2.86507H13.4287C14.0384 2.86507 14.5326 3.31279 14.5326 3.86507V10.1984C14.5326 10.7507 14.0384 11.1984 13.4287 11.1984H12.3249C11.7153 11.1984 11.2211 10.7507 11.2211 10.1984V3.86507C11.2211 3.31279 11.7153 2.86507 12.3249 2.86507ZM8.27667 5.1984H7.17285C6.56323 5.1984 6.06903 5.64612 6.06903 6.1984V10.1984C6.06903 10.7507 6.56323 11.1984 7.17285 11.1984H8.27667C8.8863 11.1984 9.38049 10.7507 9.38049 10.1984V6.1984C9.38049 5.64612 8.8863 5.1984 8.27667 5.1984ZM3.12467 7.1984H2.02083C1.4112 7.1984 0.916992 7.64612 0.916992 8.1984V10.1984C0.916992 10.7507 1.4112 11.1984 2.02083 11.1984H3.12467C3.73431 11.1984 4.22852 10.7507 4.22852 10.1984V8.1984C4.22852 7.64612 3.73431 7.1984 3.12467 7.1984Z" fill="black"/>
</svg>
