<svg width="17" height="19" viewBox="0 0 17 19" fill="none" xmlns="http://www.w3.org/2000/svg">
<path fill-rule="evenodd" clip-rule="evenodd" d="M11.4643 0.612455C10.5491 0.217275 9.56414 0.00930729 8.56734 0.000811876C7.56384 -0.0147274 6.56767 0.174096 5.63947 0.555787C4.71126 0.93748 3.87043 1.50406 3.16815 2.22104C1.74226 3.66504 0.935193 5.60785 0.918235 7.63713C0.901277 9.66642 1.67576 11.6224 3.07732 13.0901L7.67925 17.8535C7.77187 17.9507 7.88295 18.0284 8.00599 18.0821C8.12902 18.1358 8.26154 18.1645 8.39578 18.1663C8.52982 18.1694 8.66299 18.1439 8.7865 18.0918C8.91001 18.0396 9.02105 17.9618 9.11231 17.8636L13.795 13.1708C15.2222 11.7281 16.0311 9.78605 16.05 7.75676C16.0688 5.72747 15.2961 3.77071 13.8959 2.30178C13.2062 1.58203 12.3794 1.00763 11.4643 0.612455ZM8.40559 10.3105C9.75463 10.3105 10.8482 9.21684 10.8482 7.8678C10.8482 6.51876 9.75463 5.42515 8.40559 5.42515C7.05655 5.42515 5.96294 6.51876 5.96294 7.8678C5.96294 9.21684 7.05655 10.3105 8.40559 10.3105Z" fill="#4C4F4D"/>
</svg>
