<svg width="18" height="12" viewBox="0 0 18 12" fill="none" xmlns="http://www.w3.org/2000/svg">
<path fill-rule="evenodd" clip-rule="evenodd" d="M8.66599 2.47307C11.1124 2.47316 13.4652 3.3246 15.2382 4.8514C15.3717 4.96927 15.5851 4.96779 15.7166 4.84807L16.9928 3.6814C17.0594 3.62068 17.0965 3.53843 17.0959 3.45285C17.0954 3.36727 17.0572 3.28541 16.9898 3.2254C12.3363 -0.814147 4.9949 -0.814147 0.341393 3.2254C0.273984 3.28537 0.235737 3.3672 0.235115 3.45278C0.234494 3.53836 0.271549 3.62063 0.338081 3.6814L1.61468 4.84807C1.74609 4.96797 1.95966 4.96946 2.09309 4.8514C3.86629 3.3245 6.21938 2.47306 8.66599 2.47307ZM8.66599 6.26873C10.0101 6.26866 11.3063 6.72119 12.3026 7.5384C12.4374 7.65438 12.6496 7.65187 12.781 7.53273L14.0558 6.36607C14.1229 6.30487 14.1602 6.22185 14.1592 6.13559C14.1582 6.04933 14.1191 5.96701 14.0506 5.90707C11.0166 3.35068 6.31798 3.35068 3.28394 5.90707C3.2154 5.96701 3.1763 6.04937 3.1754 6.13566C3.1745 6.22195 3.21188 6.30496 3.27915 6.36607L4.55355 7.53273C4.68491 7.65187 4.8972 7.65438 5.03196 7.5384C6.02763 6.72173 7.32276 6.26924 8.66599 6.26873ZM11.2187 8.82255C11.2207 8.90906 11.1831 8.99246 11.115 9.05307L8.91024 11.0687C8.84561 11.128 8.7575 11.1613 8.66556 11.1613C8.57362 11.1613 8.48551 11.128 8.42088 11.0687L6.2158 9.05307C6.14768 8.99242 6.11021 8.90899 6.11223 8.82248C6.11425 8.73597 6.15558 8.65405 6.22647 8.59607C7.63448 7.51718 9.69664 7.51718 11.1047 8.59607C11.1755 8.6541 11.2168 8.73604 11.2187 8.82255Z" fill="black"/>
</svg>
